<svg width="22" height="27" viewBox="0 0 22 27" fill="none" xmlns="http://www.w3.org/2000/svg">
<path fill-rule="evenodd" clip-rule="evenodd" d="M16.3669 -6.10352e-05C16.4871 1.56746 15.9906 3.12004 14.9829 4.32796C14.0052 5.54214 12.5238 6.24151 10.9635 6.22547C10.8643 4.70308 11.3752 3.20374 12.3838 2.05769C13.4051 0.896113 14.8273 0.161399 16.3669 -6.10352e-05ZM21.3013 9.21034C19.5065 10.3121 18.4021 12.255 18.375 14.3585C18.3775 16.7383 19.8049 18.886 22 19.813C21.5778 21.1824 20.9415 22.4765 20.1145 23.6474C19.0038 25.3063 17.8394 26.9269 15.9911 26.9569C15.1121 26.9771 14.5188 26.7247 13.9005 26.4618C13.2556 26.1874 12.5835 25.9016 11.5319 25.9016C10.4166 25.9016 9.71449 26.1966 9.03731 26.4812C8.45212 26.7271 7.88556 26.9652 7.0871 26.9983C5.32694 27.0634 3.98175 25.2277 2.83074 23.5844C0.530217 20.2285 -1.26116 14.1269 1.14044 9.97521C2.26819 7.95173 4.37681 6.66771 6.69481 6.59293C7.69309 6.57242 8.65102 6.95661 9.49086 7.29344C10.1331 7.55103 10.7064 7.78093 11.1758 7.78093C11.5884 7.78093 12.1456 7.56011 12.795 7.30276C13.8179 6.89738 15.0696 6.40136 16.3451 6.53504C18.3272 6.59696 20.1639 7.58842 21.3013 9.21034Z" fill="white"/>
</svg>
