<svg width="31" height="32" viewBox="0 0 31 32" fill="none" xmlns="http://www.w3.org/2000/svg">
<path d="M1.7856 0.664584C1.38144 1.14595 1.17745 1.76218 1.2152 2.38766V29.6123C1.17745 30.2378 1.38144 30.854 1.7856 31.3354L1.8724 31.4215L17.236 16.1846V15.8277L1.8724 0.57843L1.7856 0.664584Z" fill="url(#paint0_linear_0_244)"/>
<path d="M22.32 21.2676L17.236 16.1845V15.8276L22.32 10.7322L22.4316 10.7938L28.52 14.2276C30.256 15.1999 30.256 16.7999 28.52 17.7845L22.4564 21.2061L22.32 21.2676Z" fill="url(#paint1_linear_0_244)"/>
<path d="M22.4688 21.1938L17.236 15.9999L1.7856 31.3353C2.51561 31.9723 3.59901 32.0033 4.3648 31.4092L22.4812 21.1938" fill="url(#paint2_linear_0_244)"/>
<path d="M22.4688 10.8061L4.3524 0.590728C3.58661 -0.00339562 2.50321 0.0276237 1.7732 0.664574L17.236 16L22.4688 10.8061Z" fill="url(#paint3_linear_0_244)"/>
<path opacity="0.2" d="M22.32 21.083L4.3524 31.2369C3.61713 31.7825 2.60767 31.7825 1.8724 31.2369L1.7856 31.323L1.8724 31.4092C2.60629 31.9589 3.61851 31.9589 4.3524 31.4092L22.4688 21.1938L22.32 21.083Z" fill="black"/>
<path opacity="0.12" fill-rule="evenodd" clip-rule="evenodd" d="M22.32 21.083L28.52 17.5999C29.1607 17.286 29.6187 16.6951 29.76 15.9999C29.6961 16.7684 29.2232 17.4444 28.52 17.7722L22.4316 21.1938L22.32 21.083ZM1.2125 29.6795C1.23298 30.221 1.4332 30.7433 1.7856 31.163L1.8724 31.2615L1.7856 31.3476C1.39329 30.8804 1.18958 30.286 1.2125 29.6795ZM1.2125 29.6795C1.21319 29.6612 1.21409 29.6429 1.2152 29.6246V29.4399C1.21037 29.52 1.2095 29.6 1.2125 29.6795Z" fill="black"/>
<path opacity="0.25" d="M4.3524 0.763L28.52 14.3999C29.1607 14.7138 29.6187 15.3047 29.76 15.9999C29.6961 15.2314 29.2232 14.5555 28.52 14.2276L4.3524 0.590692C2.6164 -0.381616 1.2028 0.430692 1.2028 2.39992V2.58454C1.24 0.603 2.6288 -0.209308 4.3524 0.763Z" fill="white"/>
<defs>
<linearGradient id="paint0_linear_0_244" x1="10.5068" y1="-17.9188" x2="-14.0696" y2="-11.3336" gradientUnits="userSpaceOnUse">
<stop stop-color="#00A0FF"/>
<stop offset="0.01" stop-color="#00A1FF"/>
<stop offset="0.26" stop-color="#00BEFF"/>
<stop offset="0.51" stop-color="#00D2FF"/>
<stop offset="0.76" stop-color="#00DFFF"/>
<stop offset="1" stop-color="#00E3FF"/>
</linearGradient>
<linearGradient id="paint1_linear_0_244" x1="30.7892" y1="3.4457" x2="0.7936" y2="3.4457" gradientUnits="userSpaceOnUse">
<stop stop-color="#FFE000"/>
<stop offset="0.41" stop-color="#FFBD00"/>
<stop offset="0.78" stop-color="#FFA500"/>
<stop offset="1" stop-color="#FF9C00"/>
</linearGradient>
<linearGradient id="paint2_linear_0_244" x1="1.33162" y1="8.03382" x2="-18.2122" y2="41.1548" gradientUnits="userSpaceOnUse">
<stop stop-color="#FF3A44"/>
<stop offset="1" stop-color="#C31162"/>
</linearGradient>
<linearGradient id="paint3_linear_0_244" x1="-10.2796" y1="-3.57419" x2="-1.55617" y2="11.2159" gradientUnits="userSpaceOnUse">
<stop stop-color="#32A071"/>
<stop offset="0.07" stop-color="#2DA771"/>
<stop offset="0.48" stop-color="#15CF74"/>
<stop offset="0.8" stop-color="#06E775"/>
<stop offset="1" stop-color="#00F076"/>
</linearGradient>
</defs>
</svg>
