<svg width="32" height="32" viewBox="0 0 32 32" fill="none" xmlns="http://www.w3.org/2000/svg">
<path fill-rule="evenodd" clip-rule="evenodd" d="M10 0H22C27.522 0 32 4.478 32 10V22C32 27.522 27.522 32 22 32H10C4.478 32 0 27.522 0 22V10C0 4.478 4.478 0 10 0ZM22 29C25.86 29 29 25.86 29 22V10C29 6.14 25.86 3 22 3H10C6.14 3 3 6.14 3 10V22C3 25.86 6.14 29 10 29H22Z" fill="white"/>
<path fill-rule="evenodd" clip-rule="evenodd" d="M8 16C8 11.582 11.582 8 16 8C20.418 8 24 11.582 24 16C24 20.418 20.418 24 16 24C11.582 24 8 20.418 8 16ZM11 16C11 18.756 13.244 21 16 21C18.756 21 21 18.756 21 16C21 13.242 18.756 11 16 11C13.244 11 11 13.242 11 16Z" fill="white"/>
<path d="M24.6 8.46598C25.1887 8.46598 25.666 7.98872 25.666 7.39998C25.666 6.81125 25.1887 6.33398 24.6 6.33398C24.0113 6.33398 23.534 6.81125 23.534 7.39998C23.534 7.98872 24.0113 8.46598 24.6 8.46598Z" fill="white"/>
</svg>
